<?xml version="1.0" standalone="no"?>
<!DOCTYPE svg PUBLIC "-//W3C//DTD SVG 20010904//EN"
 "http://www.w3.org/TR/2001/REC-SVG-20010904/DTD/svg10.dtd">
<svg version="1.0" xmlns="http://www.w3.org/2000/svg"
 width="203.000000pt" height="203.000000pt" viewBox="0 0 203.000000 203.000000"
 preserveAspectRatio="xMidYMid meet">
<metadata>
Created by potrace 1.11, written by Peter Selinger 2001-2013
</metadata>
<g transform="translate(0.000000,203.000000) scale(0.100000,-0.100000)"
fill="#000000" stroke="none">
<path d="M374 2011 c-60 -27 -119 -84 -148 -144 l-26 -51 0 -412 c0 -462 -2
-449 72 -461 32 -5 41 -1 68 25 l30 30 0 127 c0 144 10 180 61 216 l34 24 480
3 c474 3 480 3 502 24 34 32 32 99 -3 127 -25 20 -40 21 -226 21 l-199 0 21
22 c38 41 18 118 -36 139 -24 8 -24 10 -9 38 8 17 15 40 15 51 0 26 -51 80
-76 80 -15 0 -16 2 -2 18 8 9 18 26 22 36 9 26 -11 84 -34 96 -11 6 -120 10
-262 10 -216 0 -248 -3 -284 -19z"/>
<path d="M542 1214 c-14 -11 -17 -36 -17 -206 -1 -181 1 -194 20 -213 19 -20
31 -21 458 -20 421 0 439 1 453 20 11 15 14 62 14 212 0 189 0 193 -22 207
-31 19 -879 20 -906 0z"/>
<path d="M1668 1055 c-34 -19 -37 -30 -40 -187 -3 -137 -10 -156 -72 -202 -27
-20 -42 -21 -511 -26 -541 -6 -512 -1 -522 -78 -5 -34 -1 -44 20 -66 l26 -26
202 0 c200 0 202 0 184 -20 -24 -26 -25 -93 -2 -118 10 -11 30 -23 43 -26 23
-6 24 -8 9 -29 -35 -50 0 -137 55 -137 l21 0 -21 -22 c-22 -24 -26 -68 -10
-99 10 -18 24 -19 299 -19 l288 0 41 30 c23 16 53 47 66 67 55 83 56 94 56
519 l0 393 -22 25 c-29 32 -74 41 -110 21z"/>
</g>
</svg>
